<svg width="481" height="211" viewBox="0 0 481 211" fill="none" xmlns="http://www.w3.org/2000/svg">
<path d="M149.5 131.5V163.281H1.98438L0.015625 138.672L85.375 3.25H117.578L82.7031 61.6094L40.2344 131.5H149.5ZM126.297 3.25V208H85.7969V3.25H126.297ZM309.25 87.625V123.062C309.25 138.438 307.609 151.703 304.328 162.859C301.047 173.922 296.312 183.016 290.125 190.141C284.031 197.172 276.766 202.375 268.328 205.75C259.891 209.125 250.516 210.812 240.203 210.812C231.953 210.812 224.266 209.781 217.141 207.719C210.016 205.562 203.594 202.234 197.875 197.734C192.25 193.234 187.375 187.562 183.25 180.719C179.219 173.781 176.125 165.531 173.969 155.969C171.812 146.406 170.734 135.438 170.734 123.062V87.625C170.734 72.25 172.375 59.0781 175.656 48.1094C179.031 37.0469 183.766 28 189.859 20.9688C196.047 13.9375 203.359 8.78125 211.797 5.5C220.234 2.125 229.609 0.4375 239.922 0.4375C248.172 0.4375 255.812 1.51563 262.844 3.67188C269.969 5.73438 276.391 8.96875 282.109 13.375C287.828 17.7812 292.703 23.4531 296.734 30.3906C300.766 37.2344 303.859 45.4375 306.016 55C308.172 64.4688 309.25 75.3438 309.25 87.625ZM268.609 128.406V82.1406C268.609 74.7344 268.188 68.2656 267.344 62.7344C266.594 57.2031 265.422 52.5156 263.828 48.6719C262.234 44.7344 260.266 41.5469 257.922 39.1094C255.578 36.6719 252.906 34.8906 249.906 33.7656C246.906 32.6406 243.578 32.0781 239.922 32.0781C235.328 32.0781 231.25 32.9687 227.688 34.75C224.219 36.5313 221.266 39.3906 218.828 43.3281C216.391 47.1719 214.516 52.3281 213.203 58.7969C211.984 65.1719 211.375 72.9531 211.375 82.1406V128.406C211.375 135.812 211.75 142.328 212.5 147.953C213.344 153.578 214.562 158.406 216.156 162.438C217.844 166.375 219.812 169.609 222.062 172.141C224.406 174.578 227.078 176.359 230.078 177.484C233.172 178.609 236.547 179.172 240.203 179.172C244.703 179.172 248.688 178.281 252.156 176.5C255.719 174.625 258.719 171.719 261.156 167.781C263.688 163.75 265.562 158.5 266.781 152.031C268 145.562 268.609 137.688 268.609 128.406ZM480.25 131.5V163.281H332.734L330.766 138.672L416.125 3.25H448.328L413.453 61.6094L370.984 131.5H480.25ZM457.047 3.25V208H416.547V3.25H457.047Z" fill="#212529"/>
</svg>
