<svg width="48" height="20" viewBox="0 0 48 20" fill="none" xmlns="http://www.w3.org/2000/svg">
<path d="M17.2549 19.6685L17.2278 8.0663L11.6477 17.6243H9.67032L4.11733 8.31492V19.6685H0V0.331491H3.62975L10.7267 12.3481L17.7154 0.331491H21.318L21.3722 19.6685H17.2549Z" fill="#222426"/>
<path d="M27.1711 19.8895C26.4307 19.8895 25.8077 19.6317 25.302 19.116C24.7964 18.6004 24.5436 17.9558 24.5436 17.1823C24.5436 16.3904 24.7964 15.7551 25.302 15.2762C25.8077 14.779 26.4307 14.5304 27.1711 14.5304C27.9115 14.5304 28.5345 14.779 29.0401 15.2762C29.5458 15.7551 29.7986 16.3904 29.7986 17.1823C29.7986 17.9558 29.5458 18.6004 29.0401 19.116C28.5345 19.6317 27.9115 19.8895 27.1711 19.8895Z" fill="#222426"/>
<path d="M39.455 20C37.9561 20 36.5024 19.7974 35.0938 19.3923C33.7033 18.9687 32.5837 18.4254 31.735 17.7624L33.2248 14.3923C34.0374 15 35.0035 15.488 36.1232 15.8564C37.2428 16.2247 38.3624 16.4088 39.482 16.4088C40.7281 16.4088 41.6491 16.2247 42.245 15.8564C42.8409 15.4696 43.1389 14.9632 43.1389 14.337C43.1389 13.8766 42.9583 13.4991 42.5971 13.2044C42.254 12.8913 41.8026 12.6427 41.2427 12.4586C40.701 12.2744 39.9606 12.0718 39.0215 11.8508C37.5769 11.5009 36.394 11.151 35.4731 10.8011C34.5521 10.4512 33.7575 9.8895 33.0893 9.11602C32.4392 8.34254 32.1142 7.31123 32.1142 6.0221C32.1142 4.89871 32.4121 3.88582 33.0081 2.98342C33.604 2.06261 34.4979 1.33517 35.6898 0.801105C36.8997 0.267035 38.3714 0 40.1051 0C41.315 0 42.4978 0.147329 43.6535 0.441988C44.8093 0.736648 45.8206 1.16022 46.6874 1.71271L45.333 5.1105C43.5813 4.09761 41.8296 3.59116 40.078 3.59116C38.85 3.59116 37.938 3.79374 37.3421 4.1989C36.7642 4.60405 36.4753 5.13812 36.4753 5.8011C36.4753 6.46409 36.8094 6.96133 37.4776 7.29282C38.1638 7.60589 39.2021 7.91897 40.5926 8.23204C42.0373 8.58195 43.2201 8.93186 44.1411 9.28177C45.0621 9.63168 45.8477 10.1842 46.4978 10.9392C47.1659 11.6943 47.5 12.7164 47.5 14.0055C47.5 15.1105 47.193 16.1234 46.579 17.0442C45.9831 17.9466 45.0802 18.6648 43.8702 19.1989C42.6603 19.733 41.1886 20 39.455 20Z" fill="#222426"/>
</svg>
