<svg width="23" height="22" viewBox="0 0 23 22" fill="none" xmlns="http://www.w3.org/2000/svg">
<path d="M18.9883 3.17871C16.9424 1.12793 14.2178 0 11.3223 0C5.3457 0 0.482422 4.86328 0.482422 10.8398C0.482422 12.749 0.980469 14.6143 1.92773 16.2598L0.389648 21.875L6.13672 20.3662C7.71875 21.2305 9.50098 21.6846 11.3174 21.6846H11.3223C17.2939 21.6846 22.2646 16.8213 22.2646 10.8447C22.2646 7.94922 21.0342 5.22949 18.9883 3.17871ZM11.3223 19.8584C9.70117 19.8584 8.11426 19.4238 6.73242 18.6035L6.40527 18.4082L2.99707 19.3018L3.90527 15.9766L3.69043 15.6348C2.78711 14.1992 2.31348 12.5439 2.31348 10.8398C2.31348 5.87402 6.35645 1.83105 11.3271 1.83105C13.7344 1.83105 15.9951 2.76855 17.6943 4.47266C19.3936 6.17676 20.4385 8.4375 20.4336 10.8447C20.4336 15.8154 16.2881 19.8584 11.3223 19.8584ZM16.2637 13.1104C15.9951 12.9736 14.6621 12.3193 14.4131 12.2314C14.1641 12.1387 13.9834 12.0947 13.8027 12.3682C13.6221 12.6416 13.1045 13.2471 12.9434 13.4326C12.7871 13.6133 12.626 13.6377 12.3574 13.501C10.7656 12.7051 9.7207 12.0801 8.6709 10.2783C8.39258 9.7998 8.94922 9.83398 9.4668 8.79883C9.55469 8.61816 9.51074 8.46191 9.44238 8.3252C9.37402 8.18848 8.83203 6.85547 8.60742 6.31348C8.3877 5.78613 8.16309 5.85938 7.99707 5.84961C7.84082 5.83984 7.66016 5.83984 7.47949 5.83984C7.29883 5.83984 7.00586 5.9082 6.75684 6.17676C6.50781 6.4502 5.80957 7.10449 5.80957 8.4375C5.80957 9.77051 6.78125 11.0596 6.91309 11.2402C7.04981 11.4209 8.82227 14.1553 11.542 15.332C13.2607 16.0742 13.9346 16.1377 14.7939 16.0107C15.3164 15.9326 16.3955 15.3564 16.6201 14.7217C16.8447 14.0869 16.8447 13.5449 16.7764 13.4326C16.7129 13.3105 16.5322 13.2422 16.2637 13.1104Z" fill="#222426"/>
</svg>
